<?xml version="1.0" encoding="UTF-8" standalone="no"?><!DOCTYPE svg PUBLIC "-//W3C//DTD SVG 1.1//EN" "http://www.w3.org/Graphics/SVG/1.1/DTD/svg11.dtd"><svg width="100%" height="100%" viewBox="0 0 174 201" version="1.1" xmlns="http://www.w3.org/2000/svg" xmlns:xlink="http://www.w3.org/1999/xlink" xml:space="preserve" xmlns:serif="http://www.serif.com/" style="fill-rule:evenodd;clip-rule:evenodd;stroke-linejoin:round;stroke-miterlimit:2;"><path d="M120.861,0.822c-7.2,2.2 -14.2,8.4 -17.9,15.8c-1.2,2.4 -2.4,7 -2.8,10.3l-0.6,6l-43.1,0c-42.8,0 -43.2,0 -47.6,2.2c-2.6,1.4 -5.3,3.7 -6.5,5.8c-1.9,3.4 -2,5.3 -2.3,69.3c-0.2,44.3 0.1,67.1 0.8,69.7c0.6,2.3 2.1,4.7 3.5,5.6c2.1,1.4 2.5,2.4 2.5,6.9c0,7.7 1.1,8.5 12.4,8.5c5.8,0 9.6,-0.4 10.4,-1.2c0.7,-0.7 1.2,-3.8 1.2,-7l0,-5.8l64,0l0,5.4c0,7.8 1.2,8.6 11.8,8.6c4.8,0 9.3,-0.4 10,-0.8c0.9,-0.6 1.2,-3.4 1,-10.3l-0.3,-9.4l-109,-1l0,-123.6l54.8,-0.2l54.7,-0.2l0,51.8c0,50.6 0,51.9 -2.1,56.8c-1.7,4 -1.9,5.2 -0.9,6.4c2.3,2.8 3.9,1.5 7.5,-6l3.5,-7.4l0,-63.1c0,-41.6 0.4,-63.8 1,-65.1c1,-1.8 2.3,-1.9 21.1,-1.9c18.1,0 20,-0.2 20.7,-1.8c1.3,-3.2 0.8,-21.8 -0.7,-23.5c-1.2,-1.5 -4,-1.7 -23,-1.6c-11.9,0 -22.7,0.4 -24.1,0.8Zm41.8,12.8l0.3,6.3l-18.8,0c-18.1,0 -18.9,0.1 -21.6,2.3c-2.3,1.8 -3,3.4 -3.4,7.1c-0.6,4.7 -0.6,4.8 -3.6,4.2c-1.6,-0.3 -4.3,-0.6 -6,-0.6c-3,0 -3,0 -2.3,-4.6c0.9,-6.8 3.9,-12.8 8,-15.9c6.5,-4.9 9.5,-5.5 29.1,-5.2l18,0.2l0.3,6.2Zm-45.8,27.9c0.6,0.6 1.2,2.3 1.3,3.8l0.2,2.6l-55,0c-38.1,0.1 -55.1,-0.3 -55.3,-1c-0.7,-2 2.7,-5.9 5.5,-6.3c6.4,-1 102.2,-0.2 103.3,0.9Zm-92,145.4l0,7l-11,0l0,-7l11,0Zm87,0l0,7l-10,0l0,-7l10,0Z" style="fill-rule:nonzero;"/><path d="M51.561,68.622c-0.3,0.5 0,3.2 0.6,6.1c1.4,6.7 -0.3,17.3 -3.9,24.4l-2.6,5.2l-3.7,-4.2c-2,-2.3 -4.2,-4.2 -4.9,-4.2c-0.7,0 -2.7,3 -4.5,6.7c-2.7,5.8 -3.1,7.9 -3.1,14.3c0.1,9 2.3,14.6 8.2,20.7c4.8,4.9 9.4,7.5 12.5,7.1c1.9,-0.3 2.3,-1.2 2.9,-6.1c0.5,-4.1 1.9,-7.7 4.4,-11.9c4.8,-7.9 5.9,-6.8 5.9,6.7c0,5.7 0.3,10.6 0.7,11c2.5,2.5 14.2,-5.9 18.5,-13.2c5.8,-10 6,-23.4 0.3,-34.9c-6.2,-12.6 -28.5,-32.3 -31.3,-27.7Zm16.3,18c8.1,9.1 11.2,15.7 11.8,25.4c0.3,4.5 0,9.1 -0.7,11.2c-1.4,4.1 -6.6,11.7 -8.1,11.7c-0.6,0 -1,-2.6 -1,-5.8c-0.1,-6.4 -3.5,-15.9 -6.4,-17.6c-1.5,-0.9 -2.4,-0.4 -5.8,3.4c-4.1,4.6 -10.8,16.7 -10.8,19.5c0,3.7 -4.7,-0.3 -8.3,-7c-2.3,-4.5 -3,-16.5 -1,-19.9c0.9,-1.7 1.2,-1.6 3.9,1.8c1.6,2 3.4,3.6 4,3.6c2,0 7.3,-6.6 10,-12.3c1.4,-3.2 3.1,-9.2 3.7,-13.3c0.5,-4.1 1.4,-7.4 1.8,-7.4c0.4,0 3.5,3 6.9,6.7Z" style="fill-rule:nonzero;"/><path d="M132.861,155.922c-3.4,3.6 -7.9,14.6 -8.7,20.9c-0.4,3.7 -0.1,5.1 1.7,7.3c3,3.8 9.5,3.9 13.9,0.2c3.5,-2.9 10.1,-15.5 10.1,-19.3c0,-3.8 -3.3,-8.5 -7.3,-10.4c-4.9,-2.4 -6.5,-2.1 -9.7,1.3Zm9.1,5.1c2.7,2.7 2.1,6.2 -2.6,13.9c-3.7,6.2 -5.9,7.7 -8.1,5.9c-2.6,-2.1 -1.4,-7.6 3.8,-17.7c2.5,-4.7 3.9,-5.1 6.9,-2.1Z" style="fill-rule:nonzero;"/><path d="M19.561,158.622c-1.4,1.3 -0.6,4.3 1.3,5.3c1.3,0.7 15.2,1 40.4,1c33.8,-0.1 38.7,-0.3 40.1,-1.7c0.9,-0.8 1.4,-2.2 1.1,-3c-0.3,-0.8 -0.6,-1.7 -0.6,-1.9c0,-0.7 -81.6,-0.4 -82.3,0.3Z" style="fill-rule:nonzero;"/><path d="M145.561,184.722c-3.8,4 -3.9,11.1 -0.1,14.1c2.3,1.8 4.1,2.1 12.4,2.1c8.2,0 10.1,-0.3 12.2,-2c3,-2.3 4.1,-6.8 2.7,-10.9c-1.7,-4.9 -4.7,-6.1 -15.2,-6.1c-8.9,0 -9.4,0.1 -12,2.8Zm19.7,3.8c2.2,0.9 2,5.1 -0.3,6.4c-2.1,1.1 -12,1.4 -14.5,0.4c-1.6,-0.6 -2.2,-5.4 -0.9,-6.7c0.8,-0.9 13.6,-0.9 15.7,-0.1Z" style="fill-rule:nonzero;"/></svg>