<?xml version="1.0" standalone="no"?>
<!DOCTYPE svg PUBLIC "-//W3C//DTD SVG 20010904//EN"
 "http://www.w3.org/TR/2001/REC-SVG-20010904/DTD/svg10.dtd">
<svg version="1.0" xmlns="http://www.w3.org/2000/svg"
 width="1080.000000pt" height="1350.000000pt" viewBox="0 0 1080.000000 1350.000000"
 preserveAspectRatio="xMidYMid meet">

<g transform="translate(0.000000,1350.000000) scale(0.100000,-0.100000)"
fill="#000000" stroke="none">
<path d="M3850 7851 c-72 -22 -142 -84 -179 -158 -12 -24 -24 -70 -28 -103
l-6 -60 -431 0 c-428 0 -432 0 -476 -22 -26 -14 -53 -37 -65 -58 -19 -34 -20
-53 -23 -693 -2 -443 1 -671 8 -697 6 -23 21 -47 35 -56 21 -14 25 -24 25 -69
0 -77 11 -85 124 -85 58 0 96 4 104 12 7 7 12 38 12 70 l0 58 320 0 320 0 0
-54 c0 -78 12 -86 118 -86 48 0 93 4 100 8 9 6 12 34 10 103 l-3 94 -545 5
-545 5 0 618 0 618 548 2 547 2 0 -518 c0 -506 0 -519 -21 -568 -17 -40 -19
-52 -9 -64 23 -28 39 -15 75 60 l35 74 0 631 c0 416 4 638 10 651 10 18 23 19
211 19 181 0 200 2 207 18 13 32 8 218 -7 235 -12 15 -40 17 -230 16 -119 0
-227 -4 -241 -8z m418 -128 l3 -63 -188 0 c-181 0 -189 -1 -216 -23 -23 -18
-30 -34 -34 -71 -6 -47 -6 -48 -36 -42 -16 3 -43 6 -60 6 -30 0 -30 0 -23 46
9 68 39 128 80 159 65 49 95 55 291 52 l180 -2 3 -62z m-458 -279 c6 -6 12
-23 13 -38 l2 -26 -550 0 c-381 -1 -551 3 -553 10 -7 20 27 59 55 63 64 10
1022 2 1033 -9z m-920 -1489 l0 -35 -55 0 -55 0 0 35 0 35 55 0 55 0 0 -35z
m870 0 l0 -35 -50 0 -50 0 0 35 0 35 50 0 50 0 0 -35z"/>
<path d="M4750 7284 c-185 -80 -189 -362 -6 -445 90 -41 223 -10 278 64 76
102 68 245 -18 331 -63 63 -173 85 -254 50z m168 -93 c34 -24 62 -86 62 -134
-1 -44 -33 -112 -64 -132 -64 -42 -154 -21 -188 46 -25 48 -24 144 2 187 38
62 126 78 188 33z"/>
<path d="M4230 7060 l0 -230 43 0 44 0 0 76 c0 62 4 79 20 96 20 20 20 20 88
-76 l68 -96 58 0 59 0 -90 121 c-50 67 -90 126 -90 131 0 6 36 53 80 106 l81
97 -53 3 c-53 3 -53 3 -101 -50 -26 -29 -62 -72 -79 -95 -17 -24 -35 -43 -40
-43 -5 0 -8 43 -6 95 l3 95 -42 0 -43 0 0 -230z"/>
<path d="M5110 7250 l0 -40 65 0 65 0 0 -190 0 -190 45 0 45 0 0 190 0 189 68
3 67 3 3 38 3 37 -180 0 -181 0 0 -40z"/>
<path d="M5550 7060 l0 -230 140 0 140 0 0 40 0 40 -95 0 -95 0 0 190 0 190
-45 0 -45 0 0 -230z"/>
<path d="M5824 7227 c19 -35 56 -97 81 -137 45 -74 45 -74 45 -167 l0 -93 50
0 50 0 0 94 0 93 70 117 c104 174 100 156 38 156 l-53 0 -50 -95 c-27 -52 -52
-95 -55 -95 -3 0 -27 43 -55 95 l-50 95 -53 0 -54 0 36 -63z"/>
<path d="M3157 7173 c-3 -5 0 -32 6 -61 14 -67 -3 -173 -39 -244 l-26 -52 -37
42 c-20 23 -42 42 -49 42 -7 0 -27 -30 -45 -67 -27 -58 -31 -79 -31 -143 1
-90 23 -146 82 -207 48 -49 94 -75 125 -71 19 3 23 12 29 61 5 41 19 77 44
119 48 79 59 68 59 -67 0 -57 3 -106 7 -110 25 -25 142 59 185 132 58 100 60
234 3 349 -62 126 -285 323 -313 277z m163 -180 c81 -91 112 -157 118 -254 3
-45 0 -91 -7 -112 -14 -41 -66 -117 -81 -117 -6 0 -10 26 -10 58 -1 64 -35
159 -64 176 -15 9 -24 4 -58 -34 -41 -46 -108 -167 -108 -195 0 -37 -47 3 -83
70 -23 45 -30 165 -10 199 9 17 12 16 39 -18 16 -20 34 -36 40 -36 20 0 73 66
100 123 14 32 31 92 37 133 5 41 14 74 18 74 4 0 35 -30 69 -67z"/>
<path d="M4855 6652 l-40 -3 -77 -217 c-43 -120 -78 -221 -78 -225 0 -4 20 -7
44 -7 l44 0 17 50 17 51 86 -3 87 -3 14 -47 15 -48 48 0 c26 0 48 3 48 8 0 4
-27 84 -61 177 -34 94 -68 191 -77 217 -16 50 -25 55 -87 50z m47 -187 l25
-85 -59 0 c-44 0 -59 3 -55 13 2 6 15 45 28 85 12 39 26 72 29 72 4 0 18 -38
32 -85z"/>
<path d="M7687 6639 c-66 -35 -94 -109 -64 -169 17 -33 68 -66 133 -85 32 -9
58 -23 64 -36 12 -21 4 -59 -14 -71 -24 -16 -84 -8 -121 18 l-38 25 -25 -25
c-26 -25 -26 -25 -6 -47 64 -73 210 -77 268 -8 73 87 32 185 -93 223 -67 20
-91 37 -91 66 0 50 84 68 135 29 l27 -22 26 26 c22 22 24 28 12 42 -44 53
-146 69 -213 34z"/>
<path d="M4215 6633 c2 -10 4 -111 4 -225 l1 -208 45 0 45 0 0 152 0 152 38
-61 c20 -34 64 -102 97 -152 60 -91 60 -91 103 -91 l42 0 0 225 0 225 -40 0
-40 0 0 -145 c0 -80 -3 -145 -7 -145 -5 0 -48 65 -98 145 l-90 144 -52 1 c-43
0 -51 -3 -48 -17z"/>
<path d="M5250 6425 l0 -225 45 0 45 0 0 75 0 75 43 0 c65 0 130 26 157 62 35
48 39 123 8 168 -37 56 -77 70 -195 70 l-103 0 0 -225z m198 129 c15 -10 22
-25 22 -48 0 -51 -20 -69 -76 -70 l-49 -1 -3 68 -3 67 43 0 c24 0 54 -7 66
-16z"/>
<path d="M5650 6425 l0 -225 141 0 140 0 -3 38 -3 37 -92 3 -91 3 -4 54 -3 55
83 0 82 0 0 40 0 40 -79 0 -79 0 -4 50 -3 49 95 3 95 3 3 38 3 37 -140 0 -141
0 0 -225z"/>
<path d="M6010 6425 l0 -225 140 0 140 0 0 40 0 40 -96 0 -95 0 3 185 3 185
-47 0 -48 0 0 -225z"/>
<path d="M6360 6425 l0 -225 140 0 140 0 0 40 0 40 -95 0 -95 0 0 55 0 55 80
0 80 0 0 40 0 40 -80 0 -80 0 0 50 0 50 95 0 95 0 0 40 0 40 -140 0 -140 0 0
-225z"/>
<path d="M6712 6613 l3 -38 63 -3 62 -3 0 -184 0 -185 45 0 45 0 0 185 0 185
60 0 60 0 0 40 0 40 -171 0 -170 0 3 -37z"/>
<path d="M7126 6618 c9 -18 46 -81 80 -140 l64 -107 0 -85 0 -86 45 0 45 0 0
90 0 91 80 132 81 132 -48 3 c-55 4 -57 1 -117 -113 -22 -41 -42 -72 -45 -69
-4 3 -26 45 -51 92 l-45 87 -53 3 -53 3 17 -33z"/>
<path d="M7990 6425 l0 -225 45 0 45 0 0 73 c1 68 14 108 36 106 5 0 36 -39
70 -87 l61 -87 57 -3 56 -3 -90 123 c-49 68 -90 125 -90 128 0 3 36 47 80 98
44 51 80 95 80 97 0 3 -24 5 -52 5 l-53 0 -70 -86 c-38 -47 -74 -89 -80 -94
-7 -5 -9 24 -7 86 l4 94 -46 0 -46 0 0 -225z"/>
<path d="M3970 6300 c-34 -36 -79 -146 -87 -209 -4 -37 -1 -51 17 -73 30 -38
95 -39 139 -2 35 29 101 155 101 193 0 38 -33 85 -73 104 -49 24 -65 21 -97
-13z m91 -51 c27 -27 21 -62 -26 -139 -37 -62 -59 -77 -81 -59 -26 21 -14 76
38 177 25 47 39 51 69 21z"/>
<path d="M2837 6273 c-14 -13 -6 -43 13 -53 13 -7 152 -10 404 -10 338 1 387
3 401 17 9 8 14 22 11 30 -3 8 -6 17 -6 19 0 7 -816 4 -823 -3z"/>
<path d="M7462 6268 c-16 -16 -15 -53 2 -68 36 -29 92 13 75 58 -9 25 -56 31
-77 10z"/>
<path d="M4097 6012 c-38 -40 -39 -111 -1 -141 23 -18 41 -21 124 -21 82 0
101 3 122 20 30 23 41 68 27 109 -17 49 -47 61 -152 61 -89 0 -94 -1 -120 -28z
m197 -38 c22 -9 20 -51 -3 -64 -21 -11 -120 -14 -145 -4 -16 6 -22 54 -9 67 8
9 136 9 157 1z"/>
</g>
</svg>
